<?xml version="1.0" standalone="no"?><!DOCTYPE svg PUBLIC "-//W3C//DTD SVG 1.1//EN" "http://www.w3.org/Graphics/SVG/1.1/DTD/svg11.dtd"><svg t="1573301595477" class="icon" viewBox="0 0 1024 1024" version="1.1" xmlns="http://www.w3.org/2000/svg" p-id="3593" xmlns:xlink="http://www.w3.org/1999/xlink" width="128" height="128"><defs><style type="text/css"></style></defs><path d="M856.603479 381.001457c-15.621792 0-30.632671 3.411703-44.604894 10.155291l-12.241812 5.965875c-12.416797 5.823636-25.031093 11.281951-37.646412 16.280802-79.783091 31.719422-163.803693 47.809889-249.727645 47.809889-86.257549 0-170.554444-16.185634-250.552429-48.127114-18.200524-7.267521-36.170804-15.344476-53.16485-23.912619l-1.87265-0.904603c-12.654204-5.347798-26.102495-8.060583-39.946804-8.060583-55.092759 0-100.101859 43.255153-102.498442 98.522897-0.206708 1.428535-0.357134 2.856048-0.357134 4.331655 0 8.15575 1.158383 16.375969 3.63376 25.78527 32.354895 218.372519 223.219921 382.921179 444.361507 382.921179 222.24471 0 413.426961-165.707043 444.671569-385.222595 2.071172-13.169951 2.665713-22.707165 2.697435-23.944342C958.664969 426.589748 912.576281 381.001457 856.603479 381.001457z" p-id="3594"></path><path d="M762.67318 291.52254l-0.817622-1.919722c-45.271066-96.650247-143.349849-159.090345-249.869884-159.090345-104.108103 0-198.252273 57.853639-245.688655 150.966317-2.673899 5.252631-5.180999 10.584056-7.513114 16.010649l-0.944512 2.951215c-0.904603 4.094248-1.340531 7.981788-1.340531 11.869329 0 20.580734 11.464099 39.320541 29.918403 48.888454l2.348488 0.99977c2.974751 0.983397 5.990434 1.904373 8.996908 2.824325l4.149507 1.269923c68.454068 21.326724 139.263787 32.131815 210.470549 32.131815 71.381747 0 142.373615-10.869558 211.001645-32.29145 3.308349-0.729617 6.584975-1.777483 9.758248-3.1262 20.413935-8.679683 33.600259-28.625968 33.600259-50.808176C766.743892 305.137629 765.370615 298.187333 762.67318 291.52254zM568.062853 242.237043c-0.928139-8.918114 5.553483-16.915251 14.479783-17.835204 44.12087-4.665253 86.050842 33.56035 92.692099 69.469188 1.63422 8.822946-4.196579 17.295921-13.019525 18.930141-0.99977 0.190335-1.99954 0.270153-2.974751 0.270153-7.688099 0-14.511505-5.474688-15.962553-13.296841-3.911076-21.199835-31.822776-45.571918-57.369615-43.064818C576.917522 257.724783 568.999179 251.17153 568.062853 242.237043z" p-id="3595"></path></svg>